<?xml version="1.0" encoding="UTF-8"?>
<!DOCTYPE svg PUBLIC "-//W3C//DTD SVG 1.1//EN" "http://www.w3.org/Graphics/SVG/1.1/DTD/svg11.dtd">
<!-- Creator: CorelDRAW 2017 -->
<svg xmlns="http://www.w3.org/2000/svg" xml:space="preserve" width="145px" height="217px" version="1.1" style="shape-rendering:geometricPrecision; text-rendering:geometricPrecision; image-rendering:optimizeQuality; fill-rule:evenodd; clip-rule:evenodd"
viewBox="0 0 73.39 109.82"
 xmlns:xlink="http://www.w3.org/1999/xlink">
 <defs>
  <style type="text/css">
   <![CDATA[
    .fil24 {fill:#4FC3F7}
    .fil8 {fill:#618E3A}
    .fil15 {fill:#6E5147}
    .fil12 {fill:#81B54E}
    .fil21 {fill:#8D9193}
    .fil22 {fill:#97C861}
    .fil23 {fill:#ADADAD}
    .fil0 {fill:#B0230E}
    .fil19 {fill:#B1B1B1}
    .fil4 {fill:#C13A35}
    .fil7 {fill:#CB2A2A}
    .fil17 {fill:#D99F13}
    .fil20 {fill:#D9A017}
    .fil18 {fill:#D9A728}
    .fil16 {fill:#D9B344}
    .fil9 {fill:#E23832}
    .fil6 {fill:#E63E3A}
    .fil13 {fill:#EEEEEE}
    .fil3 {fill:#FECC3B}
    .fil1 {fill:#FF2100}
    .fil5 {fill:#FFB300}
    .fil14 {fill:#FFB505}
    .fil11 {fill:#FFBD19}
    .fil10 {fill:#FFBF1C}
    .fil25 {fill:#FFC107}
    .fil2 {fill:white}
   ]]>
  </style>
 </defs>
 <g id="Capa_x0020_1">
  <metadata id="CorelCorpID_0Corel-Layer"/>
  <path class="fil0" d="M36.7 0c-20.27,0 -36.7,16.43 -36.7,36.7 0,17.63 12.44,32.35 29.01,35.88 1.93,0.41 1.84,2.26 2.19,4.33l5.5 32.91 5.5 -32.94c0.36,-2.16 0.25,-3.88 2.26,-4.31 16.54,-3.57 28.93,-18.27 28.93,-35.87 0,-20.27 -16.43,-36.7 -36.69,-36.7z"/>
  <path class="fil1" d="M36.7 109.82l5.5 -32.94c0.36,-2.16 0.25,-3.88 2.26,-4.31 16.54,-3.57 28.93,-18.27 28.93,-35.87 0,-20.27 -16.43,-36.7 -36.69,-36.7l0 109.82z"/>
  <path class="fil2" d="M36.7 66.82c16.59,0 30.12,-13.53 30.12,-30.12 0,-16.59 -13.53,-30.13 -30.12,-30.13 -16.59,0 -30.13,13.54 -30.13,30.13 0,16.59 13.54,30.12 30.13,30.12z"/>
  <g id="_1103460768">
   <path class="fil3" d="M33.46 22.13c0.38,-0.06 3.7,-0.01 4.38,-0.01 1.17,0 3.03,-0.37 3.25,1.15 0.05,0.38 0.04,6.3 -0.01,6.57 -0.12,0.56 -0.56,0.99 -1.13,1.08 -0.37,0.05 -6.29,0.04 -6.57,-0.01 -0.55,-0.11 -1,-0.56 -1.08,-1.14 -0.05,-0.4 -0.01,-3.69 -0.01,-4.39 0,-1.25 -0.36,-3.03 1.17,-3.25zm-12.37 9.39c0.08,0.26 0.56,0.58 0.76,0.78l0.83 0.69c0.43,0.36 1.28,1 1.8,1.29 -0.02,-1.59 0.21,-1.31 3.1,-1.31 0.97,0 8.44,-0.08 8.74,0.07 0.53,0.27 0.38,1.15 0.38,1.84 0,0.73 0.01,1.47 0,2.21 0.8,0 2.27,-0.12 3.07,-0.24l1 -0.14c0,-0.53 0,-1.05 0,-1.58 0,-0.56 0.14,-0.83 0.45,-1.12 0.57,-0.54 1.88,-0.36 2.81,-0.36 0.6,0 4.22,-0.08 4.64,0.07 0.47,0.16 0.6,0.39 0.83,0.77 0.11,-0.05 0.11,-0.03 0.23,-0.11l2.03 -1.57c0.26,-0.23 0.81,-0.66 0.97,-0.92l-2.7 -2.37c-0.1,-0.09 -0.13,-0.1 -0.23,-0.2l-1.71 -1.5c-0.1,-0.09 -0.17,-0.13 -0.26,-0.21l-4.9 -4.27c-1,-0.85 -2.18,-1.96 -3.16,-2.77l-0.51 -0.43c-0.09,-0.09 -0.12,-0.13 -0.22,-0.2l-1.48 -1.28c-0.15,-0.15 -0.28,-0.28 -0.52,-0.37 -0.78,-0.29 -1.38,0.55 -2.08,1.11 -0.09,0.08 -0.13,0.13 -0.22,0.21 -0.33,0.28 -0.63,0.55 -0.97,0.85 -0.33,0.28 -0.64,0.53 -0.98,0.84 -0.09,0.09 -0.16,0.12 -0.25,0.21 -0.45,0.43 -1.33,1.13 -1.7,1.49l-9.75 8.52z"/>
   <path class="fil4" d="M36.48 15c0.36,-0.13 0.66,0.09 0.83,0.26l1.78 1.57c0.61,0.5 1.21,1.08 1.83,1.57l1.18 1.06c0.13,0.1 0.16,0.13 0.3,0.26 0.12,0.11 0.17,0.13 0.29,0.25 0.18,0.18 0.43,0.36 0.62,0.53 0.2,0.19 0.38,0.34 0.59,0.52 0.4,0.34 0.77,0.74 1.18,1.06 0.53,0.41 2.37,2.07 2.98,2.62l6.57 5.77c0.38,0.35 0.82,0.65 1.18,1.03 0.48,0.5 -0.04,1.28 -0.62,1.07 -0.31,-0.12 -1.44,-1.22 -1.83,-1.55l-1.8 -1.55c-0.69,-0.61 -1.8,-1.5 -2.41,-2.09l-5.41 -4.67c-0.13,-0.11 -0.17,-0.16 -0.3,-0.26l-2.69 -2.32c-0.31,-0.25 -0.58,-0.55 -0.9,-0.79 -0.13,-0.1 -0.17,-0.16 -0.29,-0.26l-1.2 -1.04c-0.94,-0.88 -2.04,-1.15 -3.06,-0.21l-3.61 3.13c-0.38,0.34 -0.85,0.68 -1.21,1.04l-4.51 3.89c-0.12,0.09 -0.18,0.17 -0.3,0.26l-4.82 4.16c-0.4,0.35 -0.82,0.68 -1.21,1.04l-1.19 1.05c-0.56,0.46 -1.19,-0.04 -1.04,-0.62 0.1,-0.35 1.4,-1.33 1.73,-1.65l1.2 -1.04c0.97,-0.81 2.01,-1.85 2.98,-2.63l3.56 -3.14c0.73,-0.58 1.99,-1.81 2.71,-2.38l0.58 -0.52c0.7,-0.54 1.7,-1.55 2.38,-2.07 0.76,-0.6 1.93,-1.76 2.69,-2.36 0.33,-0.25 0.84,-0.85 1.24,-0.99zm-17.42 18.31c0.05,-0.1 0.37,-0.36 0.48,-0.45 0.1,-0.07 0.15,-0.14 0.24,-0.22 0.1,-0.08 0.18,-0.18 0.28,-0.23 0.14,-0.15 0.35,-0.3 0.5,-0.44 0.11,-0.1 0.13,-0.13 0.25,-0.22 0.11,-0.08 0.16,-0.17 0.28,-0.23l9.75 -8.52c0.37,-0.36 1.25,-1.06 1.7,-1.49 0.09,-0.09 0.16,-0.12 0.25,-0.21 0.34,-0.31 0.65,-0.56 0.98,-0.84 0.34,-0.3 0.64,-0.57 0.97,-0.85 0.09,-0.08 0.13,-0.13 0.22,-0.21 0.7,-0.56 1.3,-1.4 2.08,-1.11 0.24,0.09 0.37,0.22 0.52,0.37l1.48 1.28c0.1,0.07 0.13,0.11 0.22,0.2l0.51 0.43c0.98,0.81 2.16,1.92 3.16,2.77l4.9 4.27c0.09,0.08 0.16,0.12 0.26,0.21l1.71 1.5c0.1,0.1 0.13,0.11 0.23,0.2l2.7 2.37c0.13,0.11 0.21,0.16 0.31,0.26 0.12,0.12 0.2,0.16 0.29,0.26 0.13,0.06 0.37,0.32 0.5,0.43 0.12,0.1 0.45,0.35 0.51,0.47 0.31,0.16 0.48,0.33 0.97,0.34 0.48,0.01 0.76,-0.11 1.05,-0.32 0.87,-0.62 0.95,-2.04 0.08,-2.71l-2.88 -2.51c-0.08,-0.08 -0.1,-0.07 -0.19,-0.15 -0.07,-0.07 -0.1,-0.11 -0.17,-0.17l-3.79 -3.29c-0.41,-0.37 -0.81,-0.75 -1.25,-1.09l-1.81 -1.58c-0.08,-0.08 -0.1,-0.08 -0.18,-0.15l-8.08 -7.06c-0.95,-0.88 -1.81,-0.87 -2.76,-0.02 -0.07,0.06 -0.1,0.1 -0.17,0.16l-3.43 2.98c-0.68,0.54 -1.29,1.19 -1.97,1.72 -0.5,0.39 -1.49,1.3 -2,1.73l-1.42 1.25c-0.13,0.13 -0.23,0.19 -0.36,0.32l-1.09 0.95c-0.39,0.3 -0.68,0.62 -1.07,0.92l-2.34 2.03c-0.07,0.06 -0.1,0.11 -0.17,0.17l-1.63 1.42c-0.09,0.08 -0.1,0.08 -0.19,0.15 -0.07,0.06 -0.1,0.11 -0.17,0.17l-1.8 1.55c-0.42,0.37 -0.91,0.71 -1.1,1.27 -0.38,1.11 0.43,2.27 1.62,2.26 0.53,0 0.68,-0.17 1.02,-0.34z"/>
   <path class="fil5" d="M49.58 43.6l0.01 0.32c0.43,0.36 0.34,0.53 0.34,1.22 0,1.71 -0.04,1.4 -3.44,1.4 -0.37,0 -5.33,0.04 -5.57,-0.03 -0.25,-0.07 -0.3,-0.21 -0.45,-0.36 -0.19,0.11 -1.5,0.21 -1.82,0.2l-0.98 0.05c-0.39,0 -0.61,0.04 -0.97,0.04l0 3.22c0.57,-0.01 0.88,-0.06 1.18,0.32 0.3,0.37 0.13,0.87 0.2,1.37 0.84,0.06 0.94,-0.03 1.3,0.62l13.94 0 0 -10.36 -1.83 1.06c-0.16,0.09 -0.32,0.15 -0.48,0.24 -0.23,0.13 -1.24,0.65 -1.43,0.69z"/>
   <path class="fil6" d="M25.58 49.66l10.01 0c0.14,-0.49 0.06,-2.93 0.07,-3.63 0.01,-1.22 0.03,-2.45 0.01,-3.67l-0.04 0.05c-0.03,0.04 -0.04,0.05 -0.06,0.08 -0.24,0.26 -0.55,0.54 -0.93,0.59l0.03 4.95c0,0.74 -0.44,0.56 -1.11,0.56 -1.1,-0.01 -2.21,-0.01 -3.31,-0.01 -4.17,0 -3.74,0.35 -3.74,-1.23l0.03 -4.97c0,-0.74 0.34,-0.56 1.04,-0.56l5 0c-0.08,-0.64 -0.01,-0.74 0.22,-1.25 0.16,-0.36 0.34,-0.53 0.78,-0.72 0.62,-0.25 1.22,-0.11 1.7,0.3l0.32 0.33c0.01,0.01 0.02,0.01 0.03,0.02l0.07 -6.09c0,-0.76 -0.05,-0.63 -1.46,-0.63 -2.74,-0.02 -5.49,-0.03 -8.23,0 -0.67,0 -0.53,0.18 -0.53,1.52l0.04 10.27c0,0.75 -0.08,3.58 0.06,4.09z"/>
   <path class="fil7" d="M34 40.47c1.32,-0.32 1.73,1.65 0.5,1.96 -1.32,0.34 -1.84,-1.63 -0.5,-1.96zm-9.52 -6.19l0 8.01 0 5.91c0.19,0.17 0.45,0.41 0.59,0.63 0.08,0.11 0.16,0.25 0.23,0.37 0.08,0.16 0.11,0.31 0.2,0.45l0.08 0.01c-0.14,-0.51 -0.06,-3.34 -0.06,-4.09l-0.04 -10.27c0,-1.34 -0.14,-1.52 0.53,-1.52 2.74,-0.03 5.49,-0.02 8.23,0 1.41,0 1.46,-0.13 1.46,0.63l-0.07 6.09c-0.01,-0.01 -0.02,-0.01 -0.03,-0.02l-0.32 -0.33c-0.48,-0.41 -1.08,-0.55 -1.7,-0.3 -0.44,0.19 -0.62,0.36 -0.78,0.72 -0.23,0.51 -0.3,0.61 -0.22,1.25l-5 0c-0.7,0 -1.04,-0.18 -1.04,0.56l-0.03 4.97c0,1.58 -0.43,1.23 3.74,1.23 1.1,0 2.21,0 3.31,0.01 0.67,0 1.11,0.18 1.11,-0.56l-0.03 -4.95c0.38,-0.05 0.69,-0.33 0.93,-0.59 0.02,-0.03 0.03,-0.04 0.06,-0.08l0.04 -0.05c0.02,1.22 0,2.45 -0.01,3.67 -0.01,0.7 0.07,3.14 -0.07,3.63l1.11 0 0 -3.22 0 -9.35c0.01,-0.74 0,-1.48 0,-2.21 0,-0.69 0.15,-1.57 -0.38,-1.84 -0.3,-0.15 -7.77,-0.07 -8.74,-0.07 -2.89,0 -3.12,-0.28 -3.1,1.31z"/>
   <path class="fil8" d="M20.05 51.04c-0.08,-0.68 0.32,-1.25 0.6,-1.67 0.31,-0.46 0.62,-0.81 1.28,-1.02 1.42,-0.45 2.56,0.49 2.89,1.46 -0.31,0.3 -0.77,0.11 -1.33,1.42 -0.43,0.03 -1.38,0.19 -1.43,0.53 -0.05,0.71 0.65,0.28 0.77,0.24 1.03,-0.33 1.54,0.05 1.79,0.07 0.19,0.02 0.33,-0.12 0.35,-0.28 0.02,-0.29 -0.29,-0.36 -0.54,-0.44l-0.19 -0.06c0,-0.01 -0.02,-0.01 -0.03,-0.02 0,-0.02 -0.02,-0.01 -0.02,-0.02 0.21,-0.6 0.63,-0.8 1.41,-0.89 1.31,-0.16 2.48,0.5 2.72,1.84 0.15,0.81 -0.12,1.35 -0.41,1.81l-10.76 -0.01c-0.44,-0.81 0.38,-0.75 0.17,-1.44 -0.14,-0.44 -0.42,-0.75 -0.08,-1.59 0.33,-0.82 1.2,-1.52 2.44,-1.41 0.06,0.24 -0.63,1.47 -0.09,1.66 0.11,0.04 0.16,0.03 0.26,-0.02l0.2 -0.16zm0.02 -2.07c-0.39,-0.06 -0.6,-0.08 -1.02,-0.05 -1.33,-0.03 -3.08,1.72 -2.57,3.42 0.08,0.25 0.21,0.32 0.08,0.53 -0.1,0.17 -0.2,0.3 -0.22,0.54 -0.04,0.56 0.11,0.92 0.42,1.16 0.25,0.19 1.08,0.11 1.44,0.11 12.95,0 25.9,0 38.85,0 0,-0.45 0,-0.9 0,-1.35 0.01,-0.78 -0.58,-1.36 -1.35,-1.36 -0.46,0 -0.91,0 -1.36,0l-1.02 0 -13.94 0c0.08,0.44 0.03,1.22 -0.01,1.69l-10.48 0 0.08 -0.36c0.14,-0.67 0.06,-0.99 -0.09,-1.6 -0.06,-0.16 -0.1,-0.29 -0.18,-0.43 -0.08,-0.15 -0.17,-0.25 -0.23,-0.39 -0.13,-0.11 -0.33,-0.34 -0.47,-0.47 -0.21,-0.19 -0.34,-0.24 -0.55,-0.39 -0.27,-0.13 -0.57,-0.25 -0.91,-0.31 -0.19,-0.04 -0.38,-0.05 -0.58,-0.04 -0.11,0 -0.18,0.02 -0.28,0.03 -0.14,0.01 -0.19,0.07 -0.18,-0.05 -0.09,-0.14 -0.12,-0.29 -0.2,-0.45 -0.07,-0.12 -0.15,-0.26 -0.23,-0.37 -0.14,-0.22 -0.4,-0.46 -0.59,-0.63 -0.39,-0.21 -0.55,-0.39 -1.08,-0.53 -0.46,-0.12 -0.97,-0.13 -1.42,-0.02 -0.47,0.1 -0.76,0.26 -1.1,0.5 -0.43,0.3 -0.53,0.54 -0.71,0.74 -0.1,0.11 0,0.02 -0.1,0.08z"/>
   <path class="fil9" d="M36.48 15c-0.4,0.14 -0.91,0.74 -1.24,0.99 -0.76,0.6 -1.93,1.76 -2.69,2.36 -0.68,0.52 -1.68,1.53 -2.38,2.07l-0.58 0.52c-0.72,0.57 -1.98,1.8 -2.71,2.38l-3.56 3.14c-0.97,0.78 -2.01,1.82 -2.98,2.63l-1.2 1.04c-0.33,0.32 -1.63,1.3 -1.73,1.65 -0.15,0.58 0.48,1.08 1.04,0.62l1.19 -1.05c0.39,-0.36 0.81,-0.69 1.21,-1.04l4.82 -4.16c0.12,-0.09 0.18,-0.17 0.3,-0.26l4.51 -3.89c0.36,-0.36 0.83,-0.7 1.21,-1.04l3.61 -3.13c1.02,-0.94 2.12,-0.67 3.06,0.21l1.2 1.04c0.12,0.1 0.16,0.16 0.29,0.26 0.32,0.24 0.59,0.54 0.9,0.79l2.69 2.32c0.13,0.1 0.17,0.15 0.3,0.26l5.41 4.67c0.61,0.59 1.72,1.48 2.41,2.09l1.8 1.55c0.39,0.33 1.52,1.43 1.83,1.55 0.58,0.21 1.1,-0.57 0.62,-1.07 -0.36,-0.38 -0.8,-0.68 -1.18,-1.03l-6.57 -5.77c-0.61,-0.55 -2.45,-2.21 -2.98,-2.62 -0.41,-0.32 -0.78,-0.72 -1.18,-1.06 -0.21,-0.18 -0.39,-0.33 -0.59,-0.52 -0.19,-0.17 -0.44,-0.35 -0.62,-0.53 -0.12,-0.12 -0.17,-0.14 -0.29,-0.25 -0.14,-0.13 -0.17,-0.16 -0.3,-0.26l-1.18 -1.06c-0.62,-0.49 -1.22,-1.07 -1.83,-1.57l-1.78 -1.57c-0.17,-0.17 -0.47,-0.39 -0.83,-0.26z"/>
   <path class="fil10" d="M36.7 37.09l0 9.35c0.36,0 0.58,-0.04 0.97,-0.04l0.98 -0.05c0.32,0.01 1.63,-0.09 1.82,-0.2 -0.04,-0.43 -0.04,-0.81 -0.04,-1.26 0,-0.19 -0.02,-0.43 0.04,-0.6 0.07,-0.22 0.17,-0.25 0.28,-0.37l0.02 -7.21 -1 0.14c-0.8,0.12 -2.27,0.24 -3.07,0.24z"/>
   <path class="fil10" d="M20.06 32.41l0.01 7.42 1.57 0.99c0.19,0.12 0.37,0.2 0.56,0.32 0.19,0.12 2.05,1.1 2.28,1.15l0 -8.01c-0.52,-0.29 -1.37,-0.93 -1.8,-1.29l-0.83 -0.69c-0.2,-0.2 -0.68,-0.52 -0.76,-0.78 -0.12,0.06 -0.17,0.15 -0.28,0.23 -0.12,0.09 -0.14,0.12 -0.25,0.22 -0.15,0.14 -0.36,0.29 -0.5,0.44z"/>
   <path class="fil11" d="M49.5 34.49c0.16,0.68 0.09,1.48 0.09,2.21 0,0.77 0,1.53 0,2.29 0,1.54 0,3.08 -0.01,4.61 0.19,-0.04 1.2,-0.56 1.43,-0.69 0.16,-0.09 0.32,-0.15 0.48,-0.24l1.83 -1.06 0.01 -9.2c-0.09,-0.1 -0.17,-0.14 -0.29,-0.26 -0.1,-0.1 -0.18,-0.15 -0.31,-0.26 -0.16,0.26 -0.71,0.69 -0.97,0.92l-2.03 1.57c-0.12,0.08 -0.12,0.06 -0.23,0.11z"/>
   <path class="fil12" d="M22.06 51.76c-0.45,0.01 -0.82,-0.11 -1.17,-0.22 -0.17,-0.06 -0.34,-0.13 -0.48,-0.2 -0.41,-0.19 -0.35,-0.19 -0.36,-0.3l-0.2 0.16c-0.1,0.05 -0.15,0.06 -0.26,0.02 -0.54,-0.19 0.15,-1.42 0.09,-1.66 -1.24,-0.11 -2.11,0.59 -2.44,1.41 -0.34,0.84 -0.06,1.15 0.08,1.59 0.21,0.69 -0.61,0.63 -0.17,1.44l10.76 0.01c0.29,-0.46 0.56,-1 0.41,-1.81 -0.24,-1.34 -1.41,-2 -2.72,-1.84 -0.78,0.09 -1.2,0.29 -1.41,0.89 0,0.01 0.02,0 0.02,0.02 0.01,0.01 0.03,0.01 0.03,0.02l0.19 0.06c0.25,0.08 0.56,0.15 0.54,0.44 -0.02,0.16 -0.16,0.3 -0.35,0.28 -0.25,-0.02 -0.76,-0.4 -1.79,-0.07 -0.12,0.04 -0.82,0.47 -0.77,-0.24z"/>
   <path class="fil13" d="M45.52 38.4l2.71 0 0 2.71 -2.71 0 0 -2.71zm-3.4 0l2.72 0 0 2.71 -2.72 0 0 -2.71zm3.4 -3.39l2.71 0 0 2.71 -2.71 0 0 -2.71zm-3.4 0l2.72 0 0 2.71 -2.72 0 0 -2.71zm-0.67 8.82l0.67 0 0 -2.04 2.72 0 0 2.04 0.68 0 0 -2.04 2.71 0 0 2.04 0.68 0 0 -8.27c0,-0.59 0.03,-1.02 -0.46,-1.2 -0.2,-0.07 -6.34,-0.07 -6.54,0 -0.5,0.17 -0.47,0.6 -0.47,1.2l0.01 8.27z"/>
   <path class="fil14" d="M20.07 48.97c0.1,-0.06 0,0.03 0.1,-0.08 0.18,-0.2 0.28,-0.44 0.71,-0.74 0.34,-0.24 0.63,-0.4 1.1,-0.5 0.45,-0.11 0.96,-0.1 1.42,0.02 0.53,0.14 0.69,0.32 1.08,0.53l0 -5.91c-0.23,-0.05 -2.09,-1.03 -2.28,-1.15 -0.19,-0.12 -0.37,-0.2 -0.56,-0.32l-1.57 -0.99 0 9.14z"/>
   <path class="fil13" d="M37.04 26.86l2.71 0 0 2.72 -2.71 0 0 -2.72zm-3.4 0l2.72 0 0 2.72 -2.72 0 0 -2.72zm3.4 -3.39l2.71 0 0 2.71 -2.71 0 0 -2.71zm-3.4 0l2.72 0 0 2.71 -2.72 0 0 -2.71zm-0.17 -0.65c-0.59,0.17 -0.51,0.71 -0.51,1.37 0,0.92 -0.05,5.29 0.03,5.57 0.16,0.56 0.75,0.49 1.37,0.49 0.93,0 5.28,0.06 5.58,-0.02 0.55,-0.16 0.49,-0.75 0.49,-1.37 0,-0.93 0.06,-5.28 -0.03,-5.58 -0.15,-0.55 -0.75,-0.49 -1.37,-0.49 -0.9,0 -5.3,-0.05 -5.56,0.03z"/>
   <path class="fil15" d="M40.75 43.92c-0.11,0.12 -0.21,0.15 -0.28,0.37 -0.06,0.17 -0.04,0.41 -0.04,0.6 0,0.45 0,0.83 0.04,1.26 0.15,0.15 0.2,0.29 0.45,0.36 0.24,0.07 5.2,0.03 5.57,0.03 3.4,0 3.44,0.31 3.44,-1.4 0,-0.69 0.09,-0.86 -0.34,-1.22 -0.24,-0.11 -0.38,-0.09 -0.68,-0.09l-0.68 0 -2.71 0 -0.68 0 -2.72 0 -0.67 0c-0.31,0 -0.44,-0.01 -0.7,0.09z"/>
   <path class="fil16" d="M33.47 22.82c0.26,-0.08 4.66,-0.03 5.56,-0.03 0.62,0 1.22,-0.06 1.37,0.49 0.09,0.3 0.03,4.65 0.03,5.58 0,0.62 0.06,1.21 -0.49,1.37 -0.3,0.08 -4.65,0.02 -5.58,0.02 -0.62,0 -1.21,0.07 -1.37,-0.49 -0.08,-0.28 -0.03,-4.65 -0.03,-5.57 0,-0.66 -0.08,-1.2 0.51,-1.37zm-0.01 -0.69c-1.53,0.22 -1.17,2 -1.17,3.25 0,0.7 -0.04,3.99 0.01,4.39 0.08,0.58 0.53,1.03 1.08,1.14 0.28,0.05 6.2,0.06 6.57,0.01 0.57,-0.09 1.01,-0.52 1.13,-1.08 0.05,-0.27 0.06,-6.19 0.01,-6.57 -0.22,-1.52 -2.08,-1.15 -3.25,-1.15 -0.68,0 -4,-0.05 -4.38,0.01z"/>
   <path class="fil17" d="M53.32 41.61l0 10.36 1.02 0 0 -18.66c-0.06,-0.12 -0.39,-0.37 -0.51,-0.47 -0.13,-0.11 -0.37,-0.37 -0.5,-0.43l-0.01 9.2z"/>
   <path class="fil18" d="M40.77 36.71l-0.02 7.21c0.26,-0.1 0.39,-0.09 0.7,-0.09l-0.01 -8.27c0,-0.6 -0.03,-1.03 0.47,-1.2 0.2,-0.07 6.34,-0.07 6.54,0 0.49,0.18 0.46,0.61 0.46,1.2l0 8.27c0.3,0 0.44,-0.02 0.68,0.09l-0.01 -0.32c0.01,-1.53 0.01,-3.07 0.01,-4.61 0,-0.76 0,-1.52 0,-2.29 0,-0.73 0.07,-1.53 -0.09,-2.21 -0.23,-0.38 -0.36,-0.61 -0.83,-0.77 -0.42,-0.15 -4.04,-0.07 -4.64,-0.07 -0.93,0 -2.24,-0.18 -2.81,0.36 -0.31,0.29 -0.45,0.56 -0.45,1.12 0,0.53 0,1.05 0,1.58z"/>
   <path class="fil19" d="M28.97 53.3l10.08 0c0.12,-1.51 0.2,-1.62 -1.29,-1.62 -1.23,0 -8.3,-0.05 -8.88,0.02 0.15,0.61 0.23,0.93 0.09,1.6z"/>
   <path class="fil20" d="M19.06 33.31l-0.01 15.61c0.42,-0.03 0.63,-0.01 1.02,0.05l0 -9.14 -0.01 -7.42c-0.1,0.05 -0.18,0.15 -0.28,0.23 -0.09,0.08 -0.14,0.15 -0.24,0.22 -0.11,0.09 -0.43,0.35 -0.48,0.45z"/>
   <path class="fil21" d="M27.45 50.02c0.09,-0.05 0.21,-0.04 0.34,-0.04l8.06 0c1.79,0 1.9,-0.18 1.84,0.94 -0.39,0 -1.03,0.05 -1.38,-0.06 -0.25,-0.07 -0.05,0.01 -0.34,0.06 -0.37,0.06 -1.42,0 -1.86,0 -0.01,-0.01 -0.02,-0.02 -0.02,-0.03 -0.01,0 -0.02,-0.01 -0.02,-0.02l-0.05 -0.05c-0.09,-0.08 -0.19,-0.11 -0.34,-0.11 -0.31,0 -0.34,0.22 -0.36,0.18 0,0 -0.01,0.02 -0.02,0.03 -0.18,0 -0.43,0.03 -0.56,-0.04 -0.02,-0.01 -0.48,-0.4 -0.79,-0.3 -0.21,0.07 -0.02,0.23 0.04,0.34 -0.23,0 -0.5,0.01 -0.73,0 -0.41,-0.01 -0.11,-0.15 -0.5,-0.17 -0.13,-0.01 -0.24,0 -0.33,0.05 -0.22,0.12 0.05,0.08 -0.22,0.12 -0.14,0.02 -0.52,0 -0.68,0l-0.01 -0.1c-0.01,-0.08 0,-0.05 -0.02,-0.13 -0.78,-0.21 -0.54,0.38 -1.03,0.19 0.06,0.14 0.15,0.24 0.23,0.39 0.08,0.14 0.12,0.27 0.18,0.43 0.58,-0.07 7.65,-0.02 8.88,-0.02 1.49,0 1.41,0.11 1.29,1.62l-10.08 0 -0.08 0.36 10.48 0c0.04,-0.47 0.09,-1.25 0.01,-1.69 -0.36,-0.65 -0.46,-0.56 -1.3,-0.62 -0.07,-0.5 0.1,-1 -0.2,-1.37 -0.3,-0.38 -0.61,-0.33 -1.18,-0.32l-1.11 0 -10.01 0 -0.08 -0.01c-0.01,0.12 0.04,0.06 0.18,0.05 0.1,-0.01 0.17,-0.03 0.28,-0.03 0.2,-0.01 0.39,0 0.58,0.04 0.34,0.06 0.64,0.18 0.91,0.31z"/>
   <path class="fil22" d="M20.05 51.04c0.01,0.11 -0.05,0.11 0.36,0.3 0.14,0.07 0.31,0.14 0.48,0.2 0.35,0.11 0.72,0.23 1.17,0.22 0.05,-0.34 1,-0.5 1.43,-0.53 0.56,-1.31 1.02,-1.12 1.33,-1.42 -0.33,-0.97 -1.47,-1.91 -2.89,-1.46 -0.66,0.21 -0.97,0.56 -1.28,1.02 -0.28,0.42 -0.68,0.99 -0.6,1.67z"/>
   <path class="fil23" d="M28.47 50.88c0.49,0.19 0.25,-0.4 1.03,-0.19 0.02,0.08 0.01,0.05 0.02,0.13l0.01 0.1c0.16,0 0.54,0.02 0.68,0 0.27,-0.04 0,0 0.22,-0.12 0.09,-0.05 0.2,-0.06 0.33,-0.05 0.39,0.02 0.09,0.16 0.5,0.17 0.23,0.01 0.5,0 0.73,0 -0.06,-0.11 -0.25,-0.27 -0.04,-0.34 0.31,-0.1 0.77,0.29 0.79,0.3 0.13,0.07 0.38,0.04 0.56,0.04 0.01,-0.01 0.02,-0.03 0.02,-0.03 0.02,0.04 0.05,-0.18 0.36,-0.18 0.15,0 0.25,0.03 0.34,0.11l0.05 0.05c0,0.01 0.01,0.02 0.02,0.02 0,0.01 0.01,0.02 0.02,0.03 0.44,0 1.49,0.06 1.86,0 0.29,-0.05 0.09,-0.13 0.34,-0.06 0.35,0.11 0.99,0.06 1.38,0.06 0.06,-1.12 -0.05,-0.94 -1.84,-0.94l-8.06 0c-0.13,0 -0.25,-0.01 -0.34,0.04 0.21,0.15 0.34,0.2 0.55,0.39 0.14,0.13 0.34,0.36 0.47,0.47z"/>
   <polygon class="fil24" points="33.64,26.18 36.36,26.18 36.36,23.47 33.64,23.47 "/>
   <polygon class="fil24" points="37.04,26.18 39.75,26.18 39.75,23.47 37.04,23.47 "/>
   <polygon class="fil24" points="33.64,29.58 36.36,29.58 36.36,26.86 33.64,26.86 "/>
   <polygon class="fil24" points="37.04,29.58 39.75,29.58 39.75,26.86 37.04,26.86 "/>
   <polygon class="fil24" points="45.52,41.11 48.23,41.11 48.23,38.4 45.52,38.4 "/>
   <polygon class="fil24" points="45.52,37.72 48.23,37.72 48.23,35.01 45.52,35.01 "/>
   <polygon class="fil24" points="42.12,41.11 44.84,41.11 44.84,38.4 42.12,38.4 "/>
   <polygon class="fil24" points="42.12,37.72 44.84,37.72 44.84,35.01 42.12,35.01 "/>
   <polygon class="fil24" points="45.52,43.83 48.23,43.83 48.23,41.79 45.52,41.79 "/>
   <polygon class="fil24" points="42.12,43.83 44.84,43.83 44.84,41.79 42.12,41.79 "/>
   <path class="fil25" d="M34 40.47c-1.34,0.33 -0.82,2.3 0.5,1.96 1.23,-0.31 0.82,-2.28 -0.5,-1.96z"/>
  </g>
 </g>
</svg>
