<?xml version="1.0" encoding="UTF-8"?>
<!DOCTYPE svg PUBLIC "-//W3C//DTD SVG 1.1//EN" "http://www.w3.org/Graphics/SVG/1.1/DTD/svg11.dtd">
<!-- Creator: CorelDRAW 2017 -->
<svg xmlns="http://www.w3.org/2000/svg" xml:space="preserve" width="119px" height="119px" version="1.1" style="shape-rendering:geometricPrecision; text-rendering:geometricPrecision; image-rendering:optimizeQuality; fill-rule:evenodd; clip-rule:evenodd"
viewBox="0 0 190.49 190.49"
 xmlns:xlink="http://www.w3.org/1999/xlink">
 <defs>
  <style type="text/css">
   <![CDATA[
    .str0 {stroke:#FEFEFE;stroke-width:18.88;stroke-linecap:round;stroke-linejoin:round;stroke-miterlimit:22.9256}
    .fil0 {fill:none}
    .fil1 {fill:url(#id1)}
   ]]>
  </style>
    <clipPath id="id0">
     <path d="M0 0l190.49 0 0 190.49 -190.49 0 0 -190.49z"/>
    </clipPath>
  <linearGradient id="id1" gradientUnits="userSpaceOnUse" x1="41.05" y1="51.05" x2="149.44" y2="139.44">
   <stop offset="0" style="stop-opacity:1; stop-color:#00AFEF"/>
   <stop offset="1" style="stop-opacity:1; stop-color:#1BC6CF"/>
  </linearGradient>
 </defs>
 <g id="Capa_x0020_1">
  <metadata id="CorelCorpID_0Corel-Layer"/>
  <g id="_1043115680">
   <g style="clip-path:url(#id0)">
    <image x="0" y="0" width="190.49" height="190.49" xlink:href="pin_Images\pin_ImgID1.png"/>
   </g>
  </g>
  <g>
   <path class="fil0 str0" d="M95.24 25.31c38.63,0 69.93,31.31 69.93,69.93 0,38.63 -31.3,69.93 -69.93,69.93 -38.62,0 -69.93,-31.3 -69.93,-69.93 0,-38.62 31.31,-69.93 69.93,-69.93z"/>
   <path id="1" class="fil1" d="M95.24 25.31c38.63,0 69.93,31.31 69.93,69.93 0,38.63 -31.3,69.93 -69.93,69.93 -38.62,0 -69.93,-31.3 -69.93,-69.93 0,-38.62 31.31,-69.93 69.93,-69.93z"/>
  </g>
 </g>
</svg>
