<?xml version="1.0" encoding="UTF-8"?>
<!DOCTYPE svg PUBLIC "-//W3C//DTD SVG 1.1//EN" "http://www.w3.org/Graphics/SVG/1.1/DTD/svg11.dtd">
<!-- Creator: CorelDRAW 2017 -->
<svg xmlns="http://www.w3.org/2000/svg" xml:space="preserve" width="145px" height="217px" version="1.1" style="shape-rendering:geometricPrecision; text-rendering:geometricPrecision; image-rendering:optimizeQuality; fill-rule:evenodd; clip-rule:evenodd"
viewBox="0 0 73.39 109.82"
 xmlns:xlink="http://www.w3.org/1999/xlink">
 <defs>
  <style type="text/css">
   <![CDATA[
    .fil0 {fill:#B0230E}
    .fil1 {fill:#FF2100}
    .fil2 {fill:white}
    .fil5 {fill:#F59BB0;fill-rule:nonzero}
    .fil4 {fill:#F16A67;fill-rule:nonzero}
    .fil3 {fill:#E84B5B;fill-rule:nonzero}
    .fil6 {fill:#443F2F;fill-rule:nonzero}
   ]]>
  </style>
 </defs>
 <g id="Capa_x0020_1">
  <metadata id="CorelCorpID_0Corel-Layer"/>
  <path class="fil0" d="M36.7 0c-20.27,0 -36.7,16.43 -36.7,36.7 0,17.63 12.44,32.35 29.01,35.88 1.93,0.41 1.84,2.26 2.19,4.33l5.5 32.91 5.5 -32.94c0.36,-2.16 0.25,-3.88 2.26,-4.31 16.54,-3.57 28.93,-18.27 28.93,-35.87 0,-20.27 -16.43,-36.7 -36.69,-36.7z"/>
  <path class="fil1" d="M36.7 109.82l5.5 -32.94c0.36,-2.16 0.25,-3.88 2.26,-4.31 16.54,-3.57 28.93,-18.27 28.93,-35.87 0,-20.27 -16.43,-36.7 -36.69,-36.7l0 109.82z"/>
  <path class="fil2" d="M36.7 66.82c16.59,0 30.12,-13.53 30.12,-30.12 0,-16.59 -13.53,-30.13 -30.12,-30.13 -16.59,0 -30.13,13.54 -30.13,30.13 0,16.59 13.54,30.12 30.13,30.12z"/>
  <path class="fil3" d="M62.64 36.7c0,14.33 -11.61,25.94 -25.94,25.94 -14.33,0 -25.95,-11.61 -25.95,-25.94 0,-14.33 11.62,-25.95 25.95,-25.95 14.33,0 25.94,11.62 25.94,25.95z"/>
  <path class="fil4" d="M57.12 33.71c0,11.29 -9.14,20.43 -20.42,20.43 -11.29,0 -20.43,-9.14 -20.43,-20.43 0,-11.28 9.14,-20.42 20.43,-20.42 11.28,0 20.42,9.14 20.42,20.42z"/>
  <path class="fil5" d="M24.53 43.4c0,2.09 -1.69,3.78 -3.78,3.78 -2.09,0 -3.78,-1.69 -3.78,-3.78 0,-2.09 1.69,-3.79 3.78,-3.79 2.09,0 3.78,1.7 3.78,3.79z"/>
  <path class="fil5" d="M58.28 38.02c0,2.3 -1.86,4.16 -4.16,4.16 -2.29,0 -4.16,-1.86 -4.16,-4.16 0,-2.3 1.87,-4.16 4.16,-4.16 2.3,0 4.16,1.86 4.16,4.16z"/>
  <g id="_1595324064">
   <path class="fil6" d="M52.72 30.59c0,0 -9.76,-0.66 -14.28,2.76 0,0 1.82,-5.39 4.83,-8.32 3.02,-2.92 7.64,-3.63 7.64,-3.63 0,0 -5.61,3.32 -7.98,7.44 0,0 5.5,-1.11 9.79,1.75z"/>
   <path class="fil6" d="M17.85 31.03c0,0 8.21,-0.54 12.01,2.25 0,0 -1.53,-4.39 -4.07,-6.78 -2.53,-2.38 -6.42,-2.96 -6.42,-2.96 0,0 4.72,2.7 6.71,6.06 0,0 -4.63,-0.9 -8.23,1.43z"/>
   <path class="fil6" d="M26.27 52.61c0,0 0.26,-9.61 10.07,-12.72 9.82,-3.1 15.46,4.92 15.46,4.92 0,0 -17.38,0.11 -25.53,7.8z"/>
  </g>
 </g>
</svg>
