<?xml version="1.0" encoding="UTF-8"?>
<!DOCTYPE svg PUBLIC "-//W3C//DTD SVG 1.1//EN" "http://www.w3.org/Graphics/SVG/1.1/DTD/svg11.dtd">
<!-- Creator: CorelDRAW 2017 -->
<svg xmlns="http://www.w3.org/2000/svg" xml:space="preserve" width="182px" height="248px" version="1.1" style="shape-rendering:geometricPrecision; text-rendering:geometricPrecision; image-rendering:optimizeQuality; fill-rule:evenodd; clip-rule:evenodd"
viewBox="0 0 94.13 128.55"
 xmlns:xlink="http://www.w3.org/1999/xlink">
 <defs>
  <style type="text/css">
   <![CDATA[
    .str0 {stroke:#FEFEFE;stroke-width:10.37;stroke-linecap:round;stroke-linejoin:round;stroke-miterlimit:22.9256}
    .fil7 {fill:none;fill-rule:nonzero}
    .fil0 {fill:#B0230E}
    .fil1 {fill:#FF2100}
    .fil2 {fill:white}
    .fil5 {fill:#F59BB0;fill-rule:nonzero}
    .fil4 {fill:#F16A67;fill-rule:nonzero}
    .fil3 {fill:#E84B5B;fill-rule:nonzero}
    .fil6 {fill:#443F2F;fill-rule:nonzero}
    .fil10 {fill:#9ECDE2;fill-rule:nonzero}
    .fil9 {fill:#C1DAEB;fill-rule:nonzero}
    .fil11 {fill:#EBF7FD;fill-rule:nonzero}
    .fil8 {fill:url(#id0);fill-rule:nonzero}
   ]]>
  </style>
  <linearGradient id="id0" gradientUnits="userSpaceOnUse" x1="35.54" y1="5.19" x2="88.94" y2="58.59">
   <stop offset="0" style="stop-opacity:1; stop-color:#00AFE4"/>
   <stop offset="1" style="stop-opacity:1; stop-color:#0093D4"/>
  </linearGradient>
 </defs>
 <g id="Capa_x0020_1">
  <metadata id="CorelCorpID_0Corel-Layer"/>
  <path class="fil0" d="M37.66 15.86c-20.8,0 -37.66,16.86 -37.66,37.66 0,18.09 12.76,33.2 29.77,36.82 1.98,0.42 1.89,2.31 2.25,4.44l5.64 33.77 5.64 -33.8c0.37,-2.21 0.26,-3.98 2.33,-4.43 16.97,-3.65 29.68,-18.74 29.68,-36.8 0,-20.8 -16.86,-37.66 -37.65,-37.66z"/>
  <path class="fil1" d="M37.66 128.55l5.64 -33.8c0.37,-2.21 0.26,-3.98 2.33,-4.43 16.97,-3.65 29.68,-18.74 29.68,-36.8 0,-20.8 -16.86,-37.66 -37.65,-37.66l0 112.69z"/>
  <path class="fil2" d="M37.66 84.43c17.02,0 30.91,-13.89 30.91,-30.91 0,-17.03 -13.89,-30.91 -30.91,-30.91 -17.03,0 -30.91,13.88 -30.91,30.91 0,17.02 13.88,30.91 30.91,30.91z"/>
  <path class="fil3" d="M64.28 53.51c0,14.71 -11.92,26.63 -26.62,26.63 -14.71,0 -26.63,-11.92 -26.63,-26.63 0,-14.7 11.92,-26.62 26.63,-26.62 14.7,0 26.62,11.92 26.62,26.62z"/>
  <path class="fil4" d="M58.62 50.46c0,11.57 -9.39,20.96 -20.96,20.96 -11.58,0 -20.97,-9.39 -20.97,-20.96 0,-11.58 9.39,-20.97 20.97,-20.97 11.57,0 20.96,9.39 20.96,20.97z"/>
  <path class="fil5" d="M25.18 60.39c0,2.14 -1.74,3.88 -3.89,3.88 -2.14,0 -3.88,-1.74 -3.88,-3.88 0,-2.14 1.74,-3.88 3.88,-3.88 2.15,0 3.89,1.74 3.89,3.88z"/>
  <path class="fil5" d="M59.81 54.87c0,2.36 -1.91,4.27 -4.27,4.27 -2.36,0 -4.27,-1.91 -4.27,-4.27 0,-2.35 1.91,-4.26 4.27,-4.26 2.36,0 4.27,1.91 4.27,4.26z"/>
  <g id="_1203127552">
   <path class="fil6" d="M54.1 47.25c0,0 -10.02,-0.68 -14.65,2.83 0,0 1.86,-5.53 4.96,-8.53 3.09,-3.01 7.83,-3.73 7.83,-3.73 0,0 -5.75,3.4 -8.18,7.63 0,0 5.64,-1.13 10.04,1.8z"/>
   <path class="fil6" d="M18.32 47.71c0,0 8.42,-0.56 12.32,2.3 0,0 -1.57,-4.51 -4.17,-6.96 -2.6,-2.44 -6.59,-3.03 -6.59,-3.03 0,0 4.84,2.77 6.88,6.22 0,0 -4.74,-0.93 -8.44,1.47z"/>
   <path class="fil6" d="M26.96 69.84c0,0 0.26,-9.85 10.33,-13.04 10.08,-3.19 15.87,5.04 15.87,5.04 0,0 -17.84,0.12 -26.2,8z"/>
  </g>
  <g>
   <path class="fil7 str0" d="M88.94 31.89c0,14.74 -11.95,26.7 -26.7,26.7 -14.74,0 -26.7,-11.96 -26.7,-26.7 0,-14.75 11.96,-26.7 26.7,-26.7 14.75,0 26.7,11.95 26.7,26.7z"/>
   <path id="1" class="fil8" d="M88.94 31.89c0,14.74 -11.95,26.7 -26.7,26.7 -14.74,0 -26.7,-11.96 -26.7,-26.7 0,-14.75 11.96,-26.7 26.7,-26.7 14.75,0 26.7,11.95 26.7,26.7z"/>
  </g>
  <polygon class="fil9" points="53.41,34.03 56.48,42.36 70.11,23.42 "/>
  <polygon class="fil10" points="56.82,35.88 56.52,42.44 63.72,36.34 "/>
  <path class="fil11" d="M73.44 20.22l-26.87 10.21c-0.76,0.29 -0.74,1.37 0.03,1.63l6.93 2.34 15.78 -10.18 -12.49 11.66 9.72 7.38c1.02,0.77 2.48,0.25 2.79,-0.98l5.26 -21.04c0.17,-0.68 -0.49,-1.27 -1.15,-1.02z"/>
 </g>
</svg>
