<?xml version="1.0" encoding="UTF-8"?>
<!DOCTYPE svg PUBLIC "-//W3C//DTD SVG 1.1//EN" "http://www.w3.org/Graphics/SVG/1.1/DTD/svg11.dtd">
<!-- Creator: CorelDRAW 2017 -->
<svg xmlns="http://www.w3.org/2000/svg" xml:space="preserve" width="145px" height="217px" version="1.1" style="shape-rendering:geometricPrecision; text-rendering:geometricPrecision; image-rendering:optimizeQuality; fill-rule:evenodd; clip-rule:evenodd"
viewBox="0 0 248.1 371.25"
 xmlns:xlink="http://www.w3.org/1999/xlink">
 <defs>
  <style type="text/css">
   <![CDATA[
    .fil0 {fill:#B0230E}
    .fil1 {fill:#FF2100}
    .fil2 {fill:white}
    .fil5 {fill:#FEFEFE;fill-rule:nonzero}
    .fil4 {fill:#FFD03A;fill-rule:nonzero}
    .fil3 {fill:#FCB63B;fill-rule:nonzero}
    .fil6 {fill:#E0E1E2;fill-rule:nonzero}
    .fil7 {fill:#443F2F;fill-rule:nonzero}
   ]]>
  </style>
 </defs>
 <g id="Capa_x0020_1">
  <metadata id="CorelCorpID_0Corel-Layer"/>
  <path class="fil0" d="M124.05 0c-68.51,0 -124.05,55.54 -124.05,124.05 0,59.61 42.04,109.38 98.08,121.32 6.52,1.39 6.22,7.62 7.39,14.62l18.58 111.26 18.6 -111.36c1.22,-7.3 0.84,-13.11 7.66,-14.58 55.9,-12.05 97.79,-61.76 97.79,-121.26 0,-68.51 -55.54,-124.05 -124.05,-124.05z"/>
  <path class="fil1" d="M124.05 371.25l18.6 -111.36c1.22,-7.3 0.84,-13.11 7.66,-14.58 55.9,-12.05 97.79,-61.76 97.79,-121.26 0,-68.51 -55.54,-124.05 -124.05,-124.05l0 371.25z"/>
  <path class="fil2" d="M124.05 225.88c56.09,0 101.83,-45.74 101.83,-101.83 0,-56.08 -45.74,-101.83 -101.83,-101.83 -56.08,0 -101.83,45.75 -101.83,101.83 0,56.09 45.75,101.83 101.83,101.83z"/>
  <g id="_1648015824">
   <path class="fil3" d="M213.39 136.24c-6.74,49.34 -52.19,83.88 -101.53,77.15 -49.35,-6.74 -83.88,-52.2 -77.15,-101.54 6.74,-49.33 52.19,-83.87 101.54,-77.14 49.34,6.74 83.87,52.2 77.14,101.53z"/>
   <path class="fil4" d="M195.79 123.38c-5.31,38.85 -41.1,66.04 -79.94,60.74 -38.84,-5.31 -66.04,-41.09 -60.73,-79.94 5.3,-38.84 41.09,-66.03 79.93,-60.73 38.85,5.3 66.04,41.09 60.74,79.93z"/>
   <path class="fil5" d="M64.99 155.72c0,0 32.33,6.2 56.16,3.58 23.84,-2.61 50.16,-14.08 50.16,-14.08 0,0 -2.45,42.29 -47.37,47.9 -44.91,5.6 -58.95,-37.4 -58.95,-37.4z"/>
   <path class="fil6" d="M118.62 163.81c0,0 -1.29,12.33 3.03,23.63 0,0 -0.89,-15.94 -3.03,-23.63z"/>
   <path class="fil6" d="M140.86 159.21c0,0 -1.29,12.33 3.03,23.64 0,0 -0.89,-15.94 -3.03,-23.64z"/>
   <path class="fil6" d="M95.92 163.17c0,0 -1.3,12.32 3.03,23.63 0,0 -0.9,-15.94 -3.03,-23.63z"/>
   <path class="fil7" d="M133.55 124.3c0,0 9.3,-13.86 25.48,-13.35 16.17,0.51 24.29,11.97 24.29,11.97 0,0 -6.38,-20.05 -25.43,-20.37 -19.04,-0.33 -24.34,21.75 -24.34,21.75z"/>
   <path class="fil7" d="M57.81 113.53c0,0 10.98,-10.13 24.96,-6.31 13.98,3.81 18.67,15.48 18.67,15.48 0,0 -1.38,-18.8 -17.91,-23.04 -16.52,-4.25 -25.72,13.87 -25.72,13.87z"/>
  </g>
 </g>
</svg>
