<?xml version="1.0" encoding="UTF-8"?>
<!DOCTYPE svg PUBLIC "-//W3C//DTD SVG 1.1//EN" "http://www.w3.org/Graphics/SVG/1.1/DTD/svg11.dtd">
<!-- Creator: CorelDRAW 2017 -->
<svg xmlns="http://www.w3.org/2000/svg" xml:space="preserve" width="176px" height="248px" version="1.1" style="shape-rendering:geometricPrecision; text-rendering:geometricPrecision; image-rendering:optimizeQuality; fill-rule:evenodd; clip-rule:evenodd"
viewBox="0 0 1490.09 2092.93"
 xmlns:xlink="http://www.w3.org/1999/xlink">
 <defs>
  <style type="text/css">
   <![CDATA[
    .str0 {stroke:#FEFEFE;stroke-width:168.88;stroke-linecap:round;stroke-linejoin:round;stroke-miterlimit:22.9256}
    .fil8 {fill:none;fill-rule:nonzero}
    .fil0 {fill:#B0230E}
    .fil1 {fill:#FF2100}
    .fil2 {fill:white}
    .fil5 {fill:#FEFEFE;fill-rule:nonzero}
    .fil4 {fill:#FFD03A;fill-rule:nonzero}
    .fil3 {fill:#FCB63B;fill-rule:nonzero}
    .fil6 {fill:#E0E1E2;fill-rule:nonzero}
    .fil7 {fill:#443F2F;fill-rule:nonzero}
    .fil11 {fill:#9ECDE2;fill-rule:nonzero}
    .fil10 {fill:#C1DAEB;fill-rule:nonzero}
    .fil12 {fill:#EBF7FD;fill-rule:nonzero}
    .fil9 {fill:url(#id0);fill-rule:nonzero}
   ]]>
  </style>
  <linearGradient id="id0" gradientUnits="userSpaceOnUse" x1="536.25" y1="84.44" x2="1405.63" y2="953.82">
   <stop offset="0" style="stop-opacity:1; stop-color:#00AFE4"/>
   <stop offset="1" style="stop-opacity:1; stop-color:#0093D4"/>
  </linearGradient>
 </defs>
 <g id="Capa_x0020_1">
  <metadata id="CorelCorpID_0Corel-Layer"/>
  <path class="fil0" d="M613.07 258.2c-338.59,0 -613.07,274.48 -613.07,613.06 0,294.58 207.76,540.59 484.74,599.58 32.22,6.86 30.73,37.63 36.52,72.26l91.81 549.83 91.92 -550.31c6.02,-36.08 4.15,-64.82 37.87,-72.09 276.24,-59.54 483.29,-305.2 483.29,-599.27 0,-338.58 -274.49,-613.06 -613.08,-613.06z"/>
  <path class="fil1" d="M613.07 2092.93l91.91 -550.31c6.03,-36.08 4.16,-64.82 37.88,-72.09 276.24,-59.54 483.3,-305.2 483.3,-599.27 0,-338.58 -274.5,-613.06 -613.09,-613.06l0 1834.73z"/>
  <path class="fil2" d="M613.07 1374.51c277.19,0 503.24,-226.06 503.24,-503.25 0,-277.17 -226.05,-503.23 -503.24,-503.23 -277.17,0 -503.23,226.06 -503.23,503.23 0,277.19 226.06,503.25 503.23,503.25z"/>
  <g id="_1223974288">
   <path class="fil3" d="M1054.58 931.52c-33.28,243.85 -257.93,414.55 -501.78,381.26 -243.85,-33.28 -414.53,-257.95 -381.25,-501.79 33.29,-243.83 257.94,-414.53 501.79,-381.24 243.84,33.28 414.53,257.95 381.24,501.77z"/>
   <path class="fil4" d="M967.59 867.97c-26.2,191.98 -203.08,326.36 -395.05,300.15 -191.96,-26.2 -326.35,-203.06 -300.14,-395.05 26.2,-191.96 203.08,-326.35 395.04,-300.14 191.97,26.2 326.36,203.07 300.15,395.04z"/>
   <path class="fil5" d="M321.19 1027.78c0,0 159.77,30.64 277.57,17.71 117.79,-12.92 247.87,-69.58 247.87,-69.58 0,0 -12.13,208.96 -234.1,236.69 -221.97,27.71 -291.34,-184.82 -291.34,-184.82z"/>
   <path class="fil6" d="M586.25 1067.75c0,0 -6.41,60.92 14.97,116.81 0,0 -4.42,-78.8 -14.97,-116.81z"/>
   <path class="fil6" d="M696.15 1045.05c0,0 -6.4,60.93 14.98,116.82 0,0 -4.42,-78.8 -14.98,-116.82z"/>
   <path class="fil6" d="M474.03 1064.58c0,0 -6.41,60.92 14.97,116.8 0,0 -4.42,-78.79 -14.97,-116.8z"/>
   <path class="fil7" d="M660.02 872.49c0,0 45.96,-68.47 125.9,-65.95 79.92,2.51 120.09,59.15 120.09,59.15 0,0 -31.54,-99.12 -125.69,-100.7 -94.13,-1.59 -120.3,107.5 -120.3,107.5z"/>
   <path class="fil7" d="M285.68 819.29c0,0 54.28,-50.07 123.39,-31.22 69.08,18.84 92.26,76.54 92.26,76.54 0,0 -6.82,-92.91 -88.49,-113.89 -81.67,-20.99 -127.16,68.57 -127.16,68.57z"/>
  </g>
  <g>
   <path class="fil8 str0" d="M1405.64 519.13c0,240.06 -194.63,434.68 -434.7,434.68 -240.07,0 -434.68,-194.62 -434.68,-434.68 0,-240.07 194.61,-434.69 434.68,-434.69 240.07,0 434.7,194.62 434.7,434.69z"/>
   <path id="1" class="fil9" d="M1405.64 519.13c0,240.06 -194.63,434.68 -434.7,434.68 -240.07,0 -434.68,-194.62 -434.68,-434.68 0,-240.07 194.61,-434.69 434.68,-434.69 240.07,0 434.7,194.62 434.7,434.69z"/>
  </g>
  <polygon class="fil10" points="827.07,553.97 877.08,689.61 1099.05,381.32 "/>
  <polygon class="fil11" points="882.56,584.11 877.77,690.98 994.91,591.64 "/>
  <path class="fil12" d="M1153.29 329.24l-437.48 166.24c-12.37,4.7 -12.04,22.29 0.5,26.53l112.81 38.12 256.91 -165.79 -203.47 189.77 158.4 120.2c16.48,12.5 40.37,4.1 45.38,-15.98l85.63 -342.49c2.76,-11.05 -8.04,-20.64 -18.68,-16.6z"/>
 </g>
</svg>
