<?xml version="1.0" encoding="UTF-8"?>
<!DOCTYPE svg PUBLIC "-//W3C//DTD SVG 1.1//EN" "http://www.w3.org/Graphics/SVG/1.1/DTD/svg11.dtd">
<!-- Creator: CorelDRAW 2017 -->
<svg xmlns="http://www.w3.org/2000/svg" xml:space="preserve" width="145px" height="217px" version="1.1" style="shape-rendering:geometricPrecision; text-rendering:geometricPrecision; image-rendering:optimizeQuality; fill-rule:evenodd; clip-rule:evenodd"
viewBox="0 0 32.72 48.96"
 xmlns:xlink="http://www.w3.org/1999/xlink">
 <defs>
  <style type="text/css">
   <![CDATA[
    .fil0 {fill:#B0230E}
    .fil1 {fill:#FF2100}
    .fil2 {fill:white}
    .fil4 {fill:#96D6DE;fill-rule:nonzero}
    .fil3 {fill:#69C8C8;fill-rule:nonzero}
    .fil5 {fill:#443F2F;fill-rule:nonzero}
   ]]>
  </style>
 </defs>
 <g id="Capa_x0020_1">
  <metadata id="CorelCorpID_0Corel-Layer"/>
  <path class="fil0" d="M16.36 0c-9.03,0 -16.36,7.33 -16.36,16.36 0,7.86 5.54,14.43 12.94,16 0.86,0.19 0.82,1.01 0.97,1.93l2.45 14.67 2.45 -14.68c0.16,-0.97 0.11,-1.73 1.01,-1.93 7.38,-1.58 12.9,-8.14 12.9,-15.99 0,-9.03 -7.32,-16.36 -16.36,-16.36z"/>
  <path class="fil1" d="M16.36 48.96l2.45 -14.68c0.16,-0.97 0.11,-1.73 1.01,-1.93 7.38,-1.58 12.9,-8.14 12.9,-15.99 0,-9.03 -7.32,-16.36 -16.36,-16.36l0 48.96z"/>
  <path class="fil2" d="M16.36 29.79c7.4,0 13.43,-6.03 13.43,-13.43 0,-7.4 -6.03,-13.43 -13.43,-13.43 -7.4,0 -13.43,6.03 -13.43,13.43 0,7.4 6.03,13.43 13.43,13.43z"/>
  <path class="fil3" d="M28.34 16.36c0,6.62 -5.36,11.98 -11.98,11.98 -6.61,0 -11.98,-5.36 -11.98,-11.98 0,-6.61 5.37,-11.98 11.98,-11.98 6.62,0 11.98,5.37 11.98,11.98z"/>
  <path class="fil4" d="M25.79 14.98c0,5.21 -4.22,9.44 -9.43,9.44 -5.21,0 -9.43,-4.23 -9.43,-9.44 0,-5.2 4.22,-9.43 9.43,-9.43 5.21,0 9.43,4.23 9.43,9.43z"/>
  <g id="_1595290784">
   <path class="fil5" d="M17.64 11.54c0,0 1.39,1.73 3.53,1.47 2.13,-0.26 3.07,-1.87 3.07,-1.87 0,0 -0.61,2.73 -3.12,3 -2.52,0.26 -3.48,-2.6 -3.48,-2.6z"/>
   <path class="fil5" d="M7.74 13.86c0,0 1.57,1.21 3.38,0.54 1.8,-0.67 2.29,-2.27 2.29,-2.27 0,0 0.04,2.51 -2.1,3.27 -2.14,0.75 -3.57,-1.54 -3.57,-1.54z"/>
   <path class="fil5" d="M12.86 23.29c0,0 0.11,-4.28 4.49,-5.67 4.37,-1.38 6.89,2.19 6.89,2.19 0,0 -7.75,0.05 -11.38,3.48z"/>
  </g>
 </g>
</svg>
