<?xml version="1.0" encoding="UTF-8"?>
<!DOCTYPE svg PUBLIC "-//W3C//DTD SVG 1.1//EN" "http://www.w3.org/Graphics/SVG/1.1/DTD/svg11.dtd">
<!-- Creator: CorelDRAW 2017 -->
<svg xmlns="http://www.w3.org/2000/svg" xml:space="preserve" width="179px" height="248px" version="1.1" style="shape-rendering:geometricPrecision; text-rendering:geometricPrecision; image-rendering:optimizeQuality; fill-rule:evenodd; clip-rule:evenodd"
viewBox="0 0 45.36 62.71"
 xmlns:xlink="http://www.w3.org/1999/xlink">
 <defs>
  <style type="text/css">
   <![CDATA[
    .str0 {stroke:#FEFEFE;stroke-width:5.06;stroke-linecap:round;stroke-linejoin:round;stroke-miterlimit:22.9256}
    .fil6 {fill:none;fill-rule:nonzero}
    .fil0 {fill:#B0230E}
    .fil1 {fill:#FF2100}
    .fil2 {fill:white}
    .fil4 {fill:#96D6DE;fill-rule:nonzero}
    .fil3 {fill:#69C8C8;fill-rule:nonzero}
    .fil5 {fill:#443F2F;fill-rule:nonzero}
    .fil9 {fill:#9ECDE2;fill-rule:nonzero}
    .fil8 {fill:#C1DAEB;fill-rule:nonzero}
    .fil10 {fill:#EBF7FD;fill-rule:nonzero}
    .fil7 {fill:url(#id0);fill-rule:nonzero}
   ]]>
  </style>
  <linearGradient id="id0" gradientUnits="userSpaceOnUse" x1="16.78" y1="2.53" x2="42.83" y2="28.58">
   <stop offset="0" style="stop-opacity:1; stop-color:#00AFE4"/>
   <stop offset="1" style="stop-opacity:1; stop-color:#0093D4"/>
  </linearGradient>
 </defs>
 <g id="Capa_x0020_1">
  <metadata id="CorelCorpID_0Corel-Layer"/>
  <path class="fil0" d="M18.37 7.74c-10.15,0 -18.37,8.22 -18.37,18.37 0,8.82 6.23,16.19 14.52,17.96 0.97,0.21 0.93,1.13 1.1,2.17l2.75 16.47 2.75 -16.49c0.18,-1.08 0.13,-1.94 1.14,-2.16 8.28,-1.78 14.48,-9.14 14.48,-17.95 0,-10.15 -8.22,-18.37 -18.37,-18.37z"/>
  <path class="fil1" d="M18.37 62.71l2.75 -16.49c0.18,-1.08 0.13,-1.94 1.14,-2.16 8.28,-1.78 14.48,-9.14 14.48,-17.95 0,-10.15 -8.22,-18.37 -18.37,-18.37l0 54.97z"/>
  <path class="fil2" d="M18.37 41.19c8.31,0 15.08,-6.78 15.08,-15.08 0,-8.31 -6.77,-15.08 -15.08,-15.08 -8.31,0 -15.08,6.77 -15.08,15.08 0,8.3 6.77,15.08 15.08,15.08z"/>
  <path class="fil3" d="M31.82 26.11c0,7.42 -6.02,13.45 -13.45,13.45 -7.43,0 -13.45,-6.03 -13.45,-13.45 0,-7.43 6.02,-13.45 13.45,-13.45 7.43,0 13.45,6.02 13.45,13.45z"/>
  <path class="fil4" d="M28.96 24.56c0,5.85 -4.74,10.59 -10.59,10.59 -5.85,0 -10.59,-4.74 -10.59,-10.59 0,-5.85 4.74,-10.59 10.59,-10.59 5.85,0 10.59,4.74 10.59,10.59z"/>
  <g id="_1229434160">
   <path class="fil5" d="M19.8 20.7c0,0 1.57,1.93 3.96,1.64 2.4,-0.29 3.46,-2.1 3.46,-2.1 0,0 -0.69,3.07 -3.51,3.37 -2.83,0.3 -3.91,-2.91 -3.91,-2.91z"/>
   <path class="fil5" d="M8.69 23.3c0,0 1.77,1.36 3.79,0.61 2.03,-0.75 2.57,-2.55 2.57,-2.55 0,0 0.05,2.81 -2.35,3.66 -2.4,0.85 -4.01,-1.72 -4.01,-1.72z"/>
   <path class="fil5" d="M14.44 33.89c0,0 0.12,-4.81 5.04,-6.37 4.91,-1.55 7.74,2.46 7.74,2.46 0,0 -8.71,0.06 -12.78,3.91z"/>
  </g>
  <g>
   <path class="fil6 str0" d="M42.83 15.55c0,7.2 -5.83,13.03 -13.02,13.03 -7.2,0 -13.03,-5.83 -13.03,-13.03 0,-7.19 5.83,-13.02 13.03,-13.02 7.19,0 13.02,5.83 13.02,13.02z"/>
   <path id="1" class="fil7" d="M42.83 15.55c0,7.2 -5.83,13.03 -13.02,13.03 -7.2,0 -13.03,-5.83 -13.03,-13.03 0,-7.19 5.83,-13.02 13.03,-13.02 7.19,0 13.02,5.83 13.02,13.02z"/>
  </g>
  <polygon class="fil8" points="25.5,16.6 27,20.66 33.65,11.43 "/>
  <polygon class="fil9" points="27.16,17.5 27.02,20.7 30.53,17.73 "/>
  <path class="fil10" d="M35.27 9.87l-13.11 4.98c-0.37,0.14 -0.36,0.66 0.02,0.79l3.38 1.14 7.7 -4.96 -6.1 5.68 4.75 3.6c0.49,0.38 1.21,0.13 1.36,-0.47l2.56 -10.27c0.08,-0.33 -0.24,-0.62 -0.56,-0.49z"/>
 </g>
</svg>
