<?xml version="1.0" encoding="UTF-8"?>
<!DOCTYPE svg PUBLIC "-//W3C//DTD SVG 1.1//EN" "http://www.w3.org/Graphics/SVG/1.1/DTD/svg11.dtd">
<!-- Creator: CorelDRAW 2017 -->
<svg xmlns="http://www.w3.org/2000/svg" xml:space="preserve" width="222px" height="227px" version="1.1" style="shape-rendering:geometricPrecision; text-rendering:geometricPrecision; image-rendering:optimizeQuality; fill-rule:evenodd; clip-rule:evenodd"
viewBox="0 0 18.62 19.04"
 xmlns:xlink="http://www.w3.org/1999/xlink">
 <defs>
  <style type="text/css">
   <![CDATA[
    .fil4 {fill:#22272B;fill-rule:nonzero}
    .fil3 {fill:#2C3135;fill-rule:nonzero}
    .fil7 {fill:#382A2A;fill-rule:nonzero}
    .fil17 {fill:#3D2A2D;fill-rule:nonzero}
    .fil32 {fill:#3D494C;fill-rule:nonzero}
    .fil11 {fill:#425775;fill-rule:nonzero}
    .fil6 {fill:#43484C;fill-rule:nonzero}
    .fil25 {fill:#493336;fill-rule:nonzero}
    .fil8 {fill:#4C3C3B;fill-rule:nonzero}
    .fil1 {fill:#523E41;fill-rule:nonzero}
    .fil24 {fill:#555E63;fill-rule:nonzero}
    .fil27 {fill:#576366;fill-rule:nonzero}
    .fil15 {fill:#576F91;fill-rule:nonzero}
    .fil28 {fill:#5C7696;fill-rule:nonzero}
    .fil31 {fill:#604B50;fill-rule:nonzero}
    .fil19 {fill:#6C83A8;fill-rule:nonzero}
    .fil26 {fill:#737E82;fill-rule:nonzero}
    .fil30 {fill:#7D676B;fill-rule:nonzero}
    .fil20 {fill:#7E97BC;fill-rule:nonzero}
    .fil21 {fill:#8AA6CE;fill-rule:nonzero}
    .fil2 {fill:#8E979B;fill-rule:nonzero}
    .fil23 {fill:#A0ADAF;fill-rule:nonzero}
    .fil22 {fill:#AAB7BA;fill-rule:nonzero}
    .fil0 {fill:#AAC4E2;fill-rule:nonzero}
    .fil12 {fill:#ACB9BC;fill-rule:nonzero}
    .fil5 {fill:#B2462D;fill-rule:nonzero}
    .fil14 {fill:#BECACC;fill-rule:nonzero}
    .fil16 {fill:#CED8DB;fill-rule:nonzero}
    .fil9 {fill:#D1CABF;fill-rule:nonzero}
    .fil29 {fill:#DD8D36;fill-rule:nonzero}
    .fil13 {fill:#E1E8EA;fill-rule:nonzero}
    .fil10 {fill:#E2DACF;fill-rule:nonzero}
    .fil18 {fill:#E9F0F2;fill-rule:nonzero}
   ]]>
  </style>
 </defs>
 <g id="Capa_x0020_1">
  <metadata id="CorelCorpID_0Corel-Layer"/>
  <polygon class="fil0" points="13.57,4.48 5.81,0 0.42,3.08 8.18,7.55 "/>
  <path class="fil1" d="M18.16 11.26l-0.02 -0.04 -0.05 0 -0.24 0.14c-0.06,0.03 -0.09,0.1 -0.09,0.17l0 0.61 0.02 0.05 0.05 0 0.3 -0.17 0.03 -0.06 0 -0.7z"/>
  <path class="fil1" d="M18.21 11.28l-0.03 -0.04 -0.05 0 -0.23 0.14c-0.06,0.03 -0.1,0.09 -0.1,0.16l0 0.62 0.02 0.05 0.06 0 0.29 -0.17 0.04 -0.06 0 -0.7z"/>
  <path class="fil1" d="M18.08 11.33l-0.06 0c0,-0.1 -0.03,-0.17 -0.07,-0.2 -0.07,-0.04 -0.19,-0.01 -0.36,0.08l-0.03 -0.05c0.2,-0.1 0.33,-0.13 0.42,-0.08 0.06,0.04 0.1,0.13 0.1,0.25z"/>
  <polygon class="fil2" points="11.61,15.38 10.33,16.15 10.33,17.03 11.61,16.27 "/>
  <polygon class="fil3" points="2.39,11.42 2.09,11.25 2.09,12.19 2.28,12.29 3.5,11.69 "/>
  <polygon class="fil4" points="9.67,16.11 3.83,12.74 3.83,12.99 9.67,16.36 "/>
  <polygon class="fil4" points="12.99,14.82 7.16,11.45 4.66,12.4 10.5,15.77 "/>
  <polygon class="fil3" points="5.93,13.67 3.56,12.3 3.56,13.2 5.93,14.57 "/>
  <polygon class="fil4" points="7.18,13.91 3.1,11.54 3.04,12.41 7.13,14.77 "/>
  <polygon class="fil5" points="2.18,11.78 2.03,11.7 2.03,12.16 2.18,12.24 "/>
  <polygon class="fil4" points="4.29,12.1 3.47,12.09 3.55,13.56 4.28,13.12 "/>
  <polygon class="fil6" points="3.57,12.39 3.19,12.17 3.19,13.34 3.57,13.56 "/>
  <polygon class="fil4" points="6.72,13.55 5.91,13.54 5.98,15 6.71,14.57 "/>
  <path class="fil7" d="M5.7 14.48c0,-0.49 -0.35,-1.1 -0.78,-1.35 -0.25,-0.14 -0.47,-0.14 -0.61,-0.02 -0.05,0.02 -0.1,0.05 -0.14,0.09 -0.19,0.06 -0.31,0.25 -0.31,0.54 0,0.5 0.35,1.1 0.79,1.35 0.26,0.15 0.49,0.14 0.63,-0.01 0.05,-0.01 0.09,-0.03 0.13,-0.06 0.18,-0.06 0.29,-0.25 0.29,-0.54z"/>
  <path class="fil8" d="M5.29 14.73c0,-0.5 -0.35,-1.1 -0.79,-1.35 -0.43,-0.25 -0.78,-0.05 -0.78,0.44 0,0.5 0.35,1.11 0.78,1.36 0.44,0.25 0.79,0.05 0.79,-0.45z"/>
  <path class="fil9" d="M5.03 14.58c0,-0.33 -0.23,-0.74 -0.52,-0.9 -0.29,-0.17 -0.52,-0.03 -0.52,0.3 0,0.33 0.23,0.73 0.52,0.9 0.29,0.16 0.52,0.03 0.52,-0.3z"/>
  <path class="fil7" d="M4.61 13.85c0,-0.07 -0.03,-0.14 -0.07,-0.16 -0.04,-0.02 -0.07,0.01 -0.07,0.08 0,0.06 0.03,0.13 0.07,0.15 0.04,0.03 0.07,-0.01 0.07,-0.07z"/>
  <path class="fil7" d="M4.61 14.74c0,-0.06 -0.03,-0.13 -0.07,-0.16 -0.04,-0.02 -0.07,0.02 -0.07,0.08 0,0.07 0.03,0.14 0.07,0.16 0.04,0.02 0.07,-0.02 0.07,-0.08z"/>
  <path class="fil7" d="M4.93 14.56c0.05,0.03 0.1,0.02 0.1,-0.02 0,-0.05 -0.05,-0.11 -0.1,-0.14 -0.06,-0.03 -0.1,-0.02 -0.1,0.02 0,0.04 0.04,0.11 0.1,0.14z"/>
  <path class="fil7" d="M4.15 14.11c0.06,0.03 0.1,0.02 0.1,-0.02 0,-0.05 -0.04,-0.11 -0.1,-0.14 -0.06,-0.03 -0.1,-0.02 -0.1,0.02 0,0.04 0.04,0.11 0.1,0.14z"/>
  <path class="fil7" d="M4.77 14.76c0.04,0.07 0.09,0.11 0.12,0.09 0.02,-0.01 0.01,-0.08 -0.03,-0.15 -0.04,-0.07 -0.09,-0.11 -0.12,-0.09 -0.02,0.01 -0.01,0.08 0.03,0.15z"/>
  <path class="fil7" d="M4.22 13.81c0.03,0.07 0.09,0.11 0.12,0.09 0.02,-0.01 0.01,-0.08 -0.03,-0.15 -0.04,-0.07 -0.09,-0.11 -0.12,-0.09 -0.02,0.01 -0.01,0.08 0.03,0.15z"/>
  <path class="fil7" d="M4.22 14.33c-0.04,0.02 -0.05,0.08 -0.03,0.12 0.03,0.05 0.08,0.07 0.12,0.04 0.04,-0.02 0.05,-0.07 0.03,-0.12 -0.03,-0.05 -0.09,-0.07 -0.12,-0.04z"/>
  <path class="fil7" d="M4.77 14.01c-0.04,0.03 -0.05,0.08 -0.03,0.13 0.03,0.04 0.08,0.06 0.12,0.04 0.04,-0.02 0.05,-0.08 0.03,-0.12 -0.03,-0.05 -0.08,-0.07 -0.12,-0.05z"/>
  <path class="fil8" d="M4.76 14.39c0,-0.15 -0.1,-0.32 -0.22,-0.39 -0.13,-0.07 -0.23,-0.02 -0.23,0.13 0,0.14 0.1,0.31 0.23,0.38 0.12,0.08 0.22,0.02 0.22,-0.12z"/>
  <path class="fil10" d="M4.69 14.4c0,-0.13 -0.09,-0.28 -0.2,-0.35 -0.11,-0.06 -0.2,-0.01 -0.2,0.12 0,0.13 0.09,0.28 0.2,0.35 0.11,0.06 0.2,0.01 0.2,-0.12z"/>
  <polygon class="fil6" points="5.99,13.87 5.61,13.66 5.61,14.79 5.99,15 "/>
  <polygon class="fil6" points="9.75,15.81 2.4,11.57 2.43,11.84 9.78,16.08 "/>
  <polygon class="fil3" points="9.73,15.72 2.43,11.5 2.42,11.7 9.72,15.92 "/>
  <polygon class="fil11" points="13.79,4.99 8.24,8.2 8.1,11.63 8.29,15.12 13.79,11.93 "/>
  <polygon class="fil12" points="18.47,14.47 13.89,17.13 13.47,18.78 18.05,16.12 "/>
  <polygon class="fil13" points="17.24,15.44 15.19,16.63 14.92,17.75 16.97,16.56 "/>
  <polygon class="fil14" points="18.46,14.1 13.88,16.76 13.88,17.17 18.46,14.51 "/>
  <polygon class="fil15" points="18.46,14.34 13.88,17 13.88,17.18 18.46,14.52 "/>
  <polygon class="fil16" points="17.24,10.08 12.66,12.74 13.88,16.76 18.46,14.1 "/>
  <polygon class="fil17" points="17.24,10.87 13.02,13.27 13.97,16.24 18.19,13.84 "/>
  <polygon class="fil18" points="14.11,8.26 9.53,10.92 12.67,12.76 17.25,10.1 "/>
  <polygon class="fil14" points="14.11,8.26 9.53,10.92 12.22,11.55 16,9.36 "/>
  <polygon class="fil19" points="8.28,8.06 1.34,3.98 0.01,3.4 0.01,10.34 8.29,15.12 8.29,8.19 "/>
  <polygon class="fil20" points="0.01,7.19 0.01,7.91 8.29,12.78 8.29,12.06 "/>
  <polygon class="fil20" points="0.01,6.57 0.01,6.85 8.29,11.72 8.29,11.43 "/>
  <polygon class="fil21" points="8.19,7.54 0.44,3.07 0,3.4 8.31,8.18 "/>
  <polygon class="fil22" points="14.68,9.39 13.23,8.08 10.43,9.7 11.96,11.27 14.76,9.67 "/>
  <polygon class="fil23" points="14.68,9.39 13.23,8.08 10.43,9.7 14.76,9.67 "/>
  <polygon class="fil4" points="10.08,13.77 9.01,13.15 9.01,15.37 10.08,15.98 "/>
  <polygon class="fil24" points="10.12,13.9 9.14,13.33 9.14,15.37 10.12,15.93 "/>
  <polygon class="fil4" points="11.6,12.95 10.53,12.34 9.01,13.16 10.07,13.77 "/>
  <path class="fil7" d="M12.42 18.16c0,-0.52 -0.37,-1.16 -0.83,-1.43 -0.26,-0.14 -0.49,-0.14 -0.64,-0.02 -0.06,0.02 -0.11,0.06 -0.15,0.1 -0.2,0.06 -0.32,0.26 -0.32,0.56 0,0.53 0.37,1.17 0.83,1.43 0.27,0.16 0.52,0.15 0.67,-0.01 0.04,-0.01 0.09,-0.04 0.13,-0.07 0.19,-0.06 0.31,-0.26 0.31,-0.56z"/>
  <path class="fil8" d="M11.98 18.42c0,-0.52 -0.37,-1.16 -0.83,-1.43 -0.45,-0.26 -0.82,-0.05 -0.82,0.47 0,0.53 0.37,1.17 0.82,1.43 0.46,0.26 0.83,0.05 0.83,-0.47z"/>
  <path class="fil9" d="M11.71 18.26c0,-0.35 -0.25,-0.77 -0.55,-0.95 -0.3,-0.18 -0.55,-0.03 -0.55,0.31 0,0.35 0.25,0.78 0.55,0.95 0.3,0.18 0.55,0.04 0.55,-0.31z"/>
  <path class="fil7" d="M11.26 17.49c0,-0.07 -0.03,-0.14 -0.07,-0.17 -0.04,-0.02 -0.07,0.02 -0.07,0.08 0,0.07 0.03,0.15 0.07,0.17 0.04,0.02 0.07,-0.01 0.07,-0.08z"/>
  <path class="fil7" d="M11.26 18.43c0,-0.07 -0.03,-0.14 -0.07,-0.16 -0.04,-0.03 -0.07,0.01 -0.07,0.08 0,0.06 0.03,0.14 0.07,0.16 0.04,0.03 0.07,-0.01 0.07,-0.08z"/>
  <path class="fil7" d="M11.6 18.24c0.06,0.03 0.11,0.02 0.11,-0.02 0,-0.05 -0.05,-0.11 -0.11,-0.15 -0.06,-0.03 -0.1,-0.02 -0.1,0.02 0,0.05 0.04,0.11 0.1,0.15z"/>
  <path class="fil7" d="M10.78 17.76c0.06,0.04 0.11,0.03 0.11,-0.02 0,-0.04 -0.05,-0.11 -0.11,-0.14 -0.06,-0.04 -0.11,-0.03 -0.11,0.02 0,0.04 0.05,0.11 0.11,0.14z"/>
  <path class="fil7" d="M11.43 18.45c0.04,0.07 0.1,0.12 0.13,0.1 0.03,-0.02 0.02,-0.09 -0.03,-0.16 -0.04,-0.07 -0.09,-0.12 -0.12,-0.1 -0.03,0.02 -0.02,0.09 0.02,0.16z"/>
  <path class="fil7" d="M10.85 17.45c0.04,0.07 0.1,0.11 0.13,0.1 0.03,-0.02 0.01,-0.09 -0.03,-0.16 -0.04,-0.07 -0.1,-0.12 -0.12,-0.1 -0.03,0.01 -0.02,0.08 0.02,0.16z"/>
  <path class="fil7" d="M10.85 18c-0.04,0.02 -0.05,0.08 -0.02,0.13 0.02,0.05 0.08,0.07 0.12,0.04 0.04,-0.02 0.06,-0.08 0.03,-0.13 -0.03,-0.05 -0.09,-0.07 -0.13,-0.04z"/>
  <path class="fil7" d="M11.43 17.66c-0.04,0.03 -0.05,0.09 -0.02,0.14 0.03,0.04 0.08,0.06 0.12,0.04 0.05,-0.02 0.06,-0.08 0.03,-0.13 -0.03,-0.05 -0.09,-0.07 -0.13,-0.05z"/>
  <path class="fil8" d="M11.43 18.06c0,-0.15 -0.11,-0.34 -0.24,-0.41 -0.13,-0.08 -0.24,-0.02 -0.24,0.13 0,0.15 0.11,0.34 0.24,0.41 0.13,0.08 0.24,0.02 0.24,-0.13z"/>
  <path class="fil10" d="M11.35 18.07c0,-0.13 -0.09,-0.3 -0.21,-0.36 -0.12,-0.07 -0.21,-0.02 -0.21,0.12 0,0.13 0.09,0.3 0.21,0.36 0.12,0.07 0.21,0.02 0.21,-0.12z"/>
  <path class="fil16" d="M12.66 12.73l-3.13 -1.81 0 5.63 0.83 0.48c0.07,-0.45 0.46,-0.61 0.93,-0.33 0.47,0.27 0.87,0.87 0.94,1.41l1.25 0.72 0.43 -1.69 0 -0.38 -1.25 -4.03z"/>
  <polygon class="fil13" points="12.66,12.73 9.53,10.92 9.53,14.23 13.91,16.76 "/>
  <path class="fil25" d="M12.68 13.31c-0.03,-0.11 -0.11,-0.21 -0.19,-0.26l-1.2 -0.69c-0.12,-0.07 -0.22,-0.02 -0.22,0.12l0 2.17c0,0.14 0.1,0.3 0.22,0.37l2.13 1.23c0.05,0.02 0.09,0.02 0.12,0 0.02,-0.03 0.03,-0.08 0.01,-0.14l-0.87 -2.8z"/>
  <polygon class="fil26" points="18.62,15.78 13.63,18.66 13.51,19.04 18.49,16.16 "/>
  <polygon class="fil2" points="13.64,18.67 13.12,18.37 13.12,18.81 13.51,19.04 "/>
  <path class="fil2" d="M10.37 17.03c0.07,-0.43 0.45,-0.58 0.91,-0.32 0.45,0.26 1.04,1.05 1.11,1.57l0.08 -0.04c-0.07,-0.69 -0.58,-1.49 -1.19,-1.85 -0.62,-0.35 -1.12,-0.14 -1.2,0.48l0.22 0.21 0.07 -0.05z"/>
  <path class="fil13" d="M10.3 17.07c0.07,-0.44 0.44,-0.58 0.9,-0.32 0.45,0.26 0.83,0.85 0.9,1.37l0.29 0.16c-0.07,-0.69 -0.58,-1.49 -1.19,-1.85 -0.61,-0.35 -1.12,-0.14 -1.19,0.47l0.29 0.17z"/>
  <polygon class="fil27" points="10.76,12.06 9.78,11.49 9.78,14.11 10.76,14.68 "/>
  <polygon class="fil16" points="10.65,12.26 9.77,11.75 9.77,14.1 10.65,14.61 "/>
  <polygon class="fil18" points="10.61,12.3 9.76,11.81 9.76,14.08 10.61,14.57 "/>
  <polygon class="fil28" points="13.55,4.46 8.2,7.54 8.31,8.18 13.79,4.99 "/>
  <polygon class="fil16" points="11.89,11.01 10.44,9.69 10.44,10.4 11.97,11.28 "/>
  <polygon class="fil22" points="14.69,9.39 11.9,11 11.97,11.28 14.75,9.67 "/>
  <polygon class="fil29" points="13.17,17.13 12.9,16.98 12.9,17.13 13.17,17.28 "/>
  <path class="fil30" d="M12.67 13.37c-0.04,-0.1 -0.11,-0.19 -0.19,-0.24l-1.1 -0.64c-0.11,-0.06 -0.2,-0.01 -0.2,0.11l0 2.01c0,0.12 0.09,0.27 0.2,0.33l1.96 1.13c0.05,0.03 0.09,0.03 0.11,0 0.03,-0.02 0.03,-0.07 0.01,-0.13l-0.79 -2.57z"/>
  <polygon class="fil1" points="17.17,10.97 13.06,13.31 13.98,16.2 18.09,13.86 "/>
  <path class="fil31" d="M15.86 12.45l1.96 1.13c0.05,0.03 0.09,0.03 0.11,0 0.03,-0.03 0.03,-0.07 0.02,-0.13l-0.61 -1.94 -0.17 -0.54 -1.51 0.86 0 0.28c0,0.13 0.09,0.28 0.2,0.34z"/>
  <polygon class="fil19" points="13.92,16.99 9.53,14.6 9.56,14.77 13.92,17.16 "/>
  <path class="fil27" d="M14.48 17.52c0,-0.18 -0.12,-0.25 -0.28,-0.16 -0.15,0.09 -0.28,0.31 -0.28,0.48 0,0.18 0.13,0.25 0.28,0.16 0.16,-0.08 0.28,-0.3 0.28,-0.48z"/>
  <path class="fil27" d="M14.92 17.27c0,-0.11 -0.08,-0.15 -0.17,-0.1 -0.09,0.06 -0.17,0.19 -0.17,0.29 0,0.11 0.08,0.15 0.17,0.1 0.09,-0.05 0.17,-0.18 0.17,-0.29z"/>
  <path class="fil13" d="M14.45 17.58c0,-0.13 -0.1,-0.18 -0.21,-0.11 -0.11,0.06 -0.2,0.22 -0.2,0.35 0,0.13 0.09,0.18 0.2,0.11 0.11,-0.06 0.21,-0.22 0.21,-0.35z"/>
  <path class="fil2" d="M14.28 17.63c0,-0.07 -0.05,-0.09 -0.1,-0.06 -0.06,0.03 -0.1,0.11 -0.1,0.17 0,0.07 0.04,0.09 0.1,0.06 0.05,-0.03 0.1,-0.11 0.1,-0.17z"/>
  <path class="fil27" d="M18.19 15.37c0,-0.18 -0.13,-0.25 -0.28,-0.16 -0.16,0.09 -0.28,0.3 -0.28,0.48 0,0.18 0.12,0.25 0.28,0.16 0.15,-0.09 0.28,-0.31 0.28,-0.48z"/>
  <path class="fil13" d="M18.15 15.43c0,-0.13 -0.09,-0.18 -0.21,-0.12 -0.11,0.07 -0.2,0.22 -0.2,0.35 0,0.13 0.09,0.18 0.21,0.12 0.11,-0.07 0.2,-0.22 0.2,-0.35z"/>
  <path class="fil2" d="M17.98 15.47c0,-0.06 -0.04,-0.09 -0.1,-0.06 -0.06,0.04 -0.1,0.11 -0.1,0.18 0,0.06 0.04,0.09 0.1,0.06 0.06,-0.04 0.1,-0.11 0.1,-0.18z"/>
  <path class="fil13" d="M14.9 17.3c0,-0.07 -0.06,-0.11 -0.13,-0.07 -0.06,0.04 -0.12,0.14 -0.12,0.21 0,0.08 0.06,0.11 0.12,0.07 0.07,-0.03 0.13,-0.13 0.13,-0.21z"/>
  <path class="fil2" d="M14.8 17.33c0,-0.04 -0.03,-0.05 -0.07,-0.04 -0.03,0.02 -0.06,0.07 -0.06,0.11 0,0.04 0.03,0.05 0.06,0.04 0.04,-0.02 0.07,-0.07 0.07,-0.11z"/>
  <path class="fil27" d="M17.56 15.73c0,-0.1 -0.08,-0.15 -0.17,-0.09 -0.1,0.05 -0.17,0.18 -0.17,0.29 0,0.11 0.07,0.15 0.17,0.1 0.09,-0.06 0.17,-0.19 0.17,-0.3z"/>
  <path class="fil13" d="M17.53 15.77c0,-0.08 -0.05,-0.11 -0.12,-0.07 -0.07,0.04 -0.12,0.13 -0.12,0.21 0,0.08 0.05,0.11 0.12,0.07 0.07,-0.04 0.12,-0.13 0.12,-0.21z"/>
  <path class="fil2" d="M17.43 15.79c0,-0.03 -0.02,-0.05 -0.06,-0.03 -0.03,0.02 -0.06,0.07 -0.06,0.11 0,0.03 0.03,0.05 0.06,0.03 0.04,-0.02 0.06,-0.07 0.06,-0.11z"/>
  <path class="fil13" d="M12.67 14.48l-0.02 -0.04 -0.05 0 -0.24 0.14c-0.06,0.03 -0.1,0.1 -0.1,0.17l0 0.62 0.03 0.04 0.05 0 0.3 -0.17 0.03 -0.06 0 -0.7z"/>
  <path class="fil7" d="M12.72 14.5l-0.03 -0.04 -0.05 0 -0.23 0.14c-0.07,0.03 -0.1,0.1 -0.1,0.17l0 0.62 0.02 0.04 0.06 0 0.29 -0.17 0.04 -0.06 0 -0.7z"/>
  <path class="fil7" d="M12.59 14.56l-0.06 0c0,-0.3 0.04,-0.41 0.35,-0.57l0.03 0.06c-0.29,0.14 -0.32,0.23 -0.32,0.51z"/>
  <polygon class="fil17" points="15.81,12.18 15.09,12.57 15.12,12.94 15.84,12.55 "/>
  <polygon class="fil17" points="15.42,11.89 15.38,11.94 15.38,12.45 15.42,12.41 "/>
  <polygon class="fil17" points="15.34,14.15 15.29,14.14 15.19,15.65 15.26,15.63 "/>
  <polygon class="fil17" points="15.24,13.83 15.18,13.85 15.56,14.89 15.62,14.87 "/>
  <polygon class="fil17" points="16.08,13.67 16.12,13.64 16.97,14.77 16.9,14.79 "/>
  <polygon class="fil17" points="16.01,13.38 16.07,13.37 16.28,14.35 16.22,14.36 "/>
  <polygon class="fil32" points="17.07,15.66 15.29,16.69 15.1,17.55 16.88,16.51 "/>
  <polygon class="fil13" points="16.21,16.12 16.14,16.11 15.97,17.08 16.05,17.09 "/>
  <polygon class="fil13" points="16.34,15.98 16.05,16.14 15.99,16.54 16.28,16.39 "/>
  <polygon class="fil32" points="16.28,16.09 16.1,16.19 16.05,16.44 16.23,16.34 "/>
 </g>
</svg>
